<?xml version="1.0" standalone="no"?>
<!DOCTYPE svg PUBLIC "-//W3C//DTD SVG 20010904//EN"
 "http://www.w3.org/TR/2001/REC-SVG-20010904/DTD/svg10.dtd">
<svg version="1.0" xmlns="http://www.w3.org/2000/svg"
 width="1111.000000pt" height="412.000000pt" viewBox="0 0 1111.000000 412.000000"
 preserveAspectRatio="xMidYMid meet">

<g transform="translate(0.000000,412.000000) scale(0.100000,-0.100000)"
fill="#000000" stroke="none">
<path d="M9430 3260 c-59 -15 -155 -56 -192 -81 -134 -92 -232 -232 -261 -375
l-14 -69 96 -17 c53 -10 150 -26 216 -37 143 -23 328 -54 485 -81 63 -11 173
-29 244 -41 70 -11 134 -23 142 -26 10 -4 14 4 14 31 0 20 5 36 10 36 6 0 10
28 10 65 0 36 -4 65 -9 65 -4 0 -11 24 -14 53 -11 97 -78 227 -161 310 -67 66
-126 105 -215 140 -66 26 -91 30 -196 33 -66 2 -136 -1 -155 -6z m53 -145 c40
-8 144 -25 233 -39 236 -37 280 -57 329 -150 31 -62 32 -107 1 -171 -27 -58
-57 -88 -108 -110 -49 -20 -98 -19 -248 6 -69 11 -188 31 -266 44 -77 12 -153
29 -170 38 -62 33 -123 127 -124 192 0 67 75 173 140 198 29 11 142 7 213 -8z"/>
<path d="M9366 2969 c-51 -40 -23 -129 42 -129 46 0 72 25 72 70 0 30 -6 43
-26 59 -15 12 -34 21 -44 21 -10 0 -29 -9 -44 -21z"/>
<path d="M9733 2915 c-68 -29 -42 -135 32 -135 40 0 75 35 75 77 0 52 -53 80
-107 58z"/>
<path d="M8940 2653 c0 -21 13 -41 48 -75 l47 -47 482 -80 482 -80 65 29 c36
17 70 39 76 51 7 11 10 22 8 23 -7 6 -459 83 -883 150 -88 14 -180 30 -205 35
-25 5 -62 13 -82 16 -36 6 -38 5 -38 -22z"/>
<path d="M4604 2371 c-2 -2 -4 -51 -4 -108 l0 -103 140 0 140 0 0 108 0 107
-136 0 c-75 0 -138 -2 -140 -4z"/>
<path d="M9470 2364 c-14 -2 -44 -9 -67 -16 l-43 -11 0 -144 0 -145 42 36 c71
61 158 72 244 32 28 -13 60 -36 72 -52 l21 -29 1 151 0 152 -47 12 c-52 13
-183 21 -223 14z"/>
<path d="M1168 1755 l2 -585 430 0 430 0 0 115 0 115 -289 0 c-188 0 -292 4
-296 10 -5 8 -8 153 -5 230 0 6 94 10 260 10 l260 0 0 113 0 112 -252 -3
c-143 -1 -255 1 -260 6 -5 5 -10 56 -10 113 l0 104 281 3 281 2 0 120 0 120
-417 0 -418 0 3 -585z"/>
<path d="M5139 2155 c-33 -83 -35 -86 -89 -114 l-55 -29 0 -73 0 -74 57 -3 56
-3 4 -257 3 -257 34 -62 c39 -72 86 -108 163 -124 61 -13 196 -7 253 13 l40
13 3 99 3 99 -23 -8 c-51 -17 -138 -17 -164 0 -47 31 -54 67 -54 284 l0 200
128 3 127 3 3 103 3 102 -131 0 -130 0 0 85 0 85 -99 0 -99 0 -33 -85z"/>
<path d="M2343 2061 c-103 -35 -158 -98 -175 -204 -30 -174 53 -271 297 -345
39 -12 85 -31 103 -42 28 -17 33 -25 30 -52 -3 -29 -8 -34 -51 -47 -41 -13
-59 -13 -125 -2 -42 7 -104 23 -137 37 -32 13 -60 22 -61 21 -23 -32 -84 -169
-78 -178 4 -6 39 -27 79 -45 178 -82 451 -68 562 30 110 96 109 287 -2 385
-38 33 -148 91 -172 91 -21 0 -147 52 -165 68 -24 20 -23 55 3 78 28 26 149
23 238 -5 36 -11 67 -19 69 -17 2 2 16 37 31 77 16 41 32 82 35 91 9 20 -56
52 -141 68 -93 17 -280 12 -340 -9z"/>
<path d="M3285 2066 c-152 -39 -245 -134 -285 -293 -39 -152 -17 -336 54 -447
91 -143 288 -206 511 -165 63 12 195 66 195 81 0 4 -18 46 -40 91 l-41 83 -57
-28 c-47 -23 -70 -28 -135 -28 -109 0 -168 33 -210 116 -22 44 -31 148 -18
216 13 74 45 121 102 153 66 36 181 36 257 0 l53 -25 40 85 c21 47 39 89 39
94 0 4 -35 23 -77 41 -73 31 -86 34 -208 36 -83 2 -148 -1 -180 -10z"/>
<path d="M4284 2066 c-40 -18 -111 -81 -119 -107 -4 -10 -12 -19 -20 -19 -8 0
-15 21 -20 65 l-7 65 -109 0 -109 0 0 -450 0 -450 130 0 130 0 0 253 c0 283 6
321 63 374 52 49 136 66 215 44 l33 -10 -3 122 -3 122 -75 2 c-47 2 -87 -3
-106 -11z"/>
<path d="M6008 2065 c-229 -63 -345 -312 -283 -610 27 -127 80 -208 171 -259
92 -52 267 -60 351 -18 43 22 96 68 106 92 5 12 10 10 24 -10 35 -50 85 -90
126 -101 61 -16 157 -6 209 22 l43 24 3 98 3 98 -30 -16 c-42 -21 -74 -19 -99
8 -22 23 -22 28 -22 350 l0 327 -79 0 c-69 0 -80 -3 -93 -21 -13 -20 -16 -21
-43 -7 -74 38 -288 51 -387 23z m296 -211 l47 -16 -3 -177 c-3 -176 -3 -178
-31 -220 -31 -46 -91 -80 -142 -81 -16 0 -53 11 -82 24 -43 21 -57 34 -80 78
-25 47 -28 63 -28 148 0 83 3 101 26 145 15 28 35 58 46 67 53 48 160 62 247
32z"/>
<path d="M4610 1620 l0 -450 130 0 130 0 0 450 0 450 -130 0 -130 0 0 -450z"/>
<path d="M9528 1829 c-15 -8 -18 -25 -18 -113 0 -112 8 -131 52 -124 22 3 23
7 26 117 2 85 -1 117 -10 123 -17 10 -29 10 -50 -3z"/>
</g>
</svg>
